<?xml version="1.0" encoding="utf-8"?>
<!-- Generator: Adobe Illustrator 25.4.1, SVG Export Plug-In . SVG Version: 6.00 Build 0)  -->
<svg version="1.1" id="Layer_1" xmlns="http://www.w3.org/2000/svg" xmlns:xlink="http://www.w3.org/1999/xlink" x="0px" y="0px"
	 viewBox="0 0 187.1 90.7" style="enable-background:new 0 0 187.1 90.7;" xml:space="preserve">
<style type="text/css">
	.st0{fill:#3C3C3B;}
	.st1{fill:#E30613;}
</style>
<g>
	<polygon class="st0" points="89.5,69.8 89.5,60.7 92.8,60.7 92.8,66.6 164,66.6 164,24.1 92.8,24.1 92.8,30.1 89.5,30.1 89.5,20.9 
		167.3,20.9 167.3,69.8 	"/>
	<path class="st1" d="M40.7,37.4l-4.8-4.4c0.2,0.2,5.1,8.6,5.1,8.6l8.9-14.7L40.7,37.4z"/>
	<path class="st0" d="M136.1,56.7c-0.7,0-1.3-0.6-1.3-1.3c0-0.7,0.6-1.3,1.3-1.3c0.7,0,1.3,0.6,1.3,1.3
		C137.4,56.2,136.9,56.7,136.1,56.7"/>
	<path class="st0" d="M98.1,51.4c-1.4,0-2.3-0.5-2.7-1.4c-2.7,1.4-5.8,0.3-5.8-2.8c0-3.3,3-4,5.6-4.8v-0.7h2.6v5.8c0,0.9,0,1,0.8,1
		h2.5c-0.8-2.7,0.1-5.4,2.2-6.5c1.1-0.6,2.8-0.5,4,0l-0.3,3c-0.7-0.2-1.5-0.5-2.3-0.5c-0.9,0-1.5,0.6-1.5,1.7c0,1.3,0.8,2.2,2,2.2
		h2.7v3H98.1z M95.1,45.1c-2.2,0.6-3.1,0.8-3.1,1.9c0,1.4,2,1.1,3.1,0.4V45.1z"/>
	<path class="st0" d="M110.6,53.1c1.4-0.1,3.5-0.4,4.4-1.8h-0.8c-2.8,0-4.6-1.9-4.6-4.7c0-2.9,1.9-5,4.5-5c2.1,0,3.4,1.3,3.8,3.8
		c0.2,1.1,0.1,2.2,0.1,2.9h1.6c1,0,1.5-0.1,1.7-0.9c0.6-2.6,1.9-5.7,4.7-5.7c1.3,0,2.4,0.6,3.2,1.8c0.8,1.2,1.1,2.9,0.8,4.3
		c0.5,0.3,1.1,0.5,2,0.5h6c-0.1-0.4-0.2-0.9-0.2-1.3c-0.2-1.5-0.4-2.8-2-2.8c-0.9,0-1.6,0.3-2.4,0.7V42c1.4-0.4,1.9-0.6,2.9-0.6
		c1.5,0,2.7,0.8,3.3,2.4c0.6,1.5,0.5,3.7,1.1,4.5c0.1,0.1,0.1,0.1,0.2,0.1h1.3c0.5,0,1.1-0.2,1.2-0.9c1.1-4.7,3.1-5.7,4.7-5.7
		c2.6,0,4.1,2.6,4.1,5.1c0,2.3-1.5,4.6-4.1,4.6c-1.3,0-2.5-0.5-3.3-1.3c-0.5,0.8-1.2,1.2-2.3,1.2h-10.4c-1.4,0-2.3-0.3-3.2-1.2
		c-0.8,0.9-1.7,1.3-2.9,1.3c-1.3,0-2.5-0.5-3.3-1.3c-0.5,0.8-1.2,1.2-2.3,1.2h-2.5c-0.9,3.5-3.7,4.3-6.8,4.7L110.6,53.1z
		 M145.6,47.9c0.9,0.7,3.5,1,4-0.1c0.4-0.9-0.2-3.2-1.7-3.2C146.7,44.6,145.9,46.3,145.6,47.9 M123.5,47.9c0.9,0.7,3.5,1,4-0.1
		c0.4-0.9-0.2-3.2-1.7-3.2C124.6,44.6,123.8,46.3,123.5,47.9 M113.6,44.4c-1,0-1.6,0.9-1.6,2.1c0,1.6,1.1,1.9,2.1,1.9h1.3
		C115.3,46.5,115.3,44.4,113.6,44.4"/>
	<path class="st0" d="M96.4,38.8c-0.7,0-1.3-0.6-1.3-1.3c0-0.7,0.6-1.3,1.3-1.3c0.7,0,1.3,0.6,1.3,1.3
		C97.7,38.2,97.1,38.8,96.4,38.8"/>
	<path class="st0" d="M93.3,38.8c-0.7,0-1.3-0.6-1.3-1.3c0-0.7,0.6-1.3,1.3-1.3c0.7,0,1.3,0.6,1.3,1.3
		C94.7,38.2,94.1,38.8,93.3,38.8"/>
	<path class="st0" d="M21.3,60.8c-0.7-2.2-1.5-5.3-1.5-7c0-1.2,0.3-2.3,0.8-3.2c0.8-1.3,2-1.9,2.8-2.4c0.2-0.1,0.3-0.2,0.5-0.3
		l0.1-0.1l0-0.1c1.1-3.8,3-5.9,5.4-5.9c3.3,0,4.7,3,4.7,5.1c0,1.9-1.5,4.6-4.7,4.6c-1.6,0-3.1-0.6-4.1-1.5l-0.1-0.1l-0.1,0
		c-1.6,0.2-2.5,0.8-3,2c-0.9,2,0.3,6.1,1.1,8.3L21.3,60.8z M29.4,43.7c-2,0-3.3,2.3-3.7,4.5l0,0.2l0.1,0.1c0.5,0.5,2.2,1,3.7,1
		c0.8,0,2.2-0.2,2.8-1.2c0.4-0.8,0.3-2.1-0.4-3.2C31.3,44.2,30.4,43.7,29.4,43.7z"/>
	<path class="st0" d="M37.3,54.7c3.3-0.3,5.2-1.3,5.9-2.9l0.2-0.4h-2.2c-3.3,0-5.4-1.9-5.4-4.8c0-2.9,2.2-5.1,5.2-5.1
		c2.9,0,4.5,2,4.5,5.6v2.2h7.4c0.7,0,2.5,0,2.9-1c0.7-1.6-0.8-3.4-4.5-5.6l5.1-8.8l1.4,1.1l-4,7l0.3,0.2c2.7,1.7,4,3.8,3.6,6l0,0.2
		l0.2,0.1c0.8,0.5,1.8,0.7,3.1,0.7h5.6c0.4,0,1-0.2,1-1.5v-7.1h2v7.8l0.1,0.1c0.8,0.5,1.8,0.7,3.1,0.7h6.3v-8.6h2v10.7h-8.4
		c-1.4,0-2.5-0.3-3.4-1l-0.3-0.2L69,50.4c-0.5,0.6-1.1,1-1.9,1H61c-1.6,0-2.7-0.4-3.7-1.2l-0.2-0.2l-0.2,0.2c-0.8,0.8-2,1.2-3.7,1.2
		h-7.8l-0.1,0.2c-1,3.8-4.5,4.7-7.8,5.1L37.3,54.7z M40.6,43.4c-1.6,0-2.8,1.3-2.8,3c0,1.8,1.3,2.9,3.4,2.9h2.3v-1.5
		C43.5,44.9,42.6,43.4,40.6,43.4z"/>
	<path class="st0" d="M81.5,39c-0.7,0-1.3-0.6-1.3-1.3s0.6-1.3,1.3-1.3c0.7,0,1.3,0.6,1.3,1.3S82.2,39,81.5,39"/>
	<path class="st0" d="M78.2,39c-0.7,0-1.3-0.6-1.3-1.3s0.6-1.3,1.3-1.3c0.7,0,1.3,0.6,1.3,1.3S79,39,78.2,39"/>
	<path class="st0" d="M70.7,56.7c-0.7,0-1.3-0.6-1.3-1.3c0-0.7,0.6-1.3,1.3-1.3c0.7,0,1.3,0.6,1.3,1.3C72,56.1,71.4,56.7,70.7,56.7"
		/>
	<path class="st0" d="M67.4,56.7c-0.7,0-1.3-0.6-1.3-1.3c0-0.7,0.6-1.3,1.3-1.3c0.7,0,1.3,0.6,1.3,1.3
		C68.7,56.1,68.1,56.7,67.4,56.7"/>
</g>
</svg>
