<?xml version="1.0" encoding="utf-8"?>
<!-- Generator: Adobe Illustrator 25.4.1, SVG Export Plug-In . SVG Version: 6.00 Build 0)  -->
<svg version="1.1" id="Layer_1" xmlns="http://www.w3.org/2000/svg" xmlns:xlink="http://www.w3.org/1999/xlink" x="0px" y="0px"
	 viewBox="0 0 187.1 90.7" style="enable-background:new 0 0 187.1 90.7;" xml:space="preserve">
<style type="text/css">
	.st0{fill:#3C3C3B;}
	.st1{fill:#E30613;}
</style>
<g>
	<polygon class="st0" points="89.6,69.8 89.6,60.7 92.9,60.7 92.9,66.6 164,66.6 164,24.2 92.9,24.2 92.9,30.1 89.6,30.1 89.6,21 
		167.3,21 167.3,69.8 	"/>
	<g>
		<path class="st1" d="M59.9,34.5l-4.2-3.9c0.2,0.2,4.5,7.6,4.5,7.6L68,25.2L59.9,34.5z"/>
		<polygon class="st0" points="25.6,53.6 23.5,53.6 23.5,40 19.3,40 19.3,38.1 29.9,38.1 29.9,40 25.6,40 		"/>
		<polygon class="st0" points="40.3,44.9 40.3,46.7 33.7,46.7 33.7,51.8 41.3,51.8 41.3,53.6 31.6,53.6 31.6,38.1 41.3,38.1 
			41.3,40 33.7,40 33.7,44.9 		"/>
		<path class="st0" d="M54.7,43.4c0-3.6,2-5.6,5.5-5.6c3.6,0,5.5,2,5.5,5.6v4.8c0,3.6-2,5.6-5.5,5.6c-3.6,0-5.5-2-5.5-5.6V43.4z
			 M56.8,48c0,2.7,1.1,4,3.4,4c2.3,0,3.4-1.3,3.4-4v-4.3c0-2.7-1.1-4-3.4-4c-2.3,0-3.4,1.3-3.4,4V48z"/>
		<polygon class="st0" points="83.7,38.1 83.7,53.6 81.6,53.6 81.6,41.1 81.6,41.1 76.9,53.6 75.2,53.6 70.4,41.1 70.4,41.1 
			70.4,53.6 68.3,53.6 68.3,38.1 71.5,38.1 76,50.5 76.1,50.5 80.6,38.1 		"/>
		<path class="st0" d="M120.1,53.9c-3.7,0-5.7-2-5.7-5.7v-4.6c0-3.7,2-5.7,5.7-5.7c3.7,0,5.7,2,5.7,5.7v4.6
			C125.7,51.9,123.7,53.9,120.1,53.9 M120.1,40.3c-2,0-2.9,1.1-2.9,3.5v4.1c0,2.4,0.9,3.5,2.9,3.5c2,0,2.9-1.1,2.9-3.5v-4.1
			C123,41.4,122.1,40.3,120.1,40.3"/>
		<path class="st0" d="M133.1,53.9c-3.5,0-5.4-2-5.4-5.5V38.1l0,0h2.7v10c0,2.3,0.8,3.3,2.7,3.3c1.9,0,2.7-1,2.7-3.3v-10l0,0h2.7
			v10.2C138.5,51.9,136.6,53.9,133.1,53.9"/>
		<path class="st0" d="M141,53.6V38.1h4.9c3.8,0,5.6,1.6,5.6,4.9c0,3.3-1.8,4.9-5.6,4.9h-2.2v5.7H141z M145.9,45.4
			c2.1,0,2.9-0.7,2.9-2.4c0-1.7-0.8-2.4-2.9-2.4h-2.2v4.9H145.9z"/>
		<path class="st0" d="M113.6,53.6l-3.7-6.2c2-0.6,3-2.2,3-4.5c0-3.2-1.8-4.8-5.6-4.8h-4.8v15.5h2.7h0v-5.8h1.9l3.4,5.8H113.6z
			 M105.1,45.3v-4.7h2.1c2.1,0,2.9,0.7,2.9,2.4c0,1.7-0.8,2.4-2.9,2.4H105.1z"/>
		<path class="st0" d="M94.9,47.4h2.9v0.4c0,2.4-0.9,3.5-2.9,3.5c-2,0-2.9-1.1-2.9-3.5v-4.1c0-2.4,0.9-3.5,2.9-3.5
			c1.4,0,2.4,0.5,3,1.6c0,0,0,0,0,0l2.2-1.3l0,0c-1-1.8-2.8-2.8-5.1-2.8c-3.7,0-5.7,2-5.7,5.7v4.6c0,3.7,2,5.7,5.6,5.7
			c3.6,0,5.6-2,5.6-5.8v-3.2h-5.6V47.4z"/>
		<path class="st0" d="M48.4,52c-2.2,0-3.3-1.3-3.3-4v-4.3c0-2.7,1.1-4,3.3-4c1.5,0,2.5,0.6,3.2,1.8l1.6-1c-1-1.8-2.6-2.6-4.8-2.6
			c-3.5,0-5.4,2-5.4,5.6v4.8c0,3.6,1.9,5.6,5.4,5.6c2.2,0,3.9-0.9,4.8-2.7l-1.6-0.9C51,51.4,49.9,52,48.4,52"/>
	</g>
</g>
</svg>
